<?xml version="1.0" encoding="UTF-8"?>
<svg width="85px" height="127px" viewBox="0 0 85 127" version="1.1" xmlns="http://www.w3.org/2000/svg" xmlns:xlink="http://www.w3.org/1999/xlink">
    <!-- Generator: Sketch 48.2 (47327) - http://www.bohemiancoding.com/sketch -->
    <title>Group 2</title>
    <desc>Created with Sketch.</desc>
    <defs>
        <linearGradient x1="50%" y1="0%" x2="50%" y2="100%" id="linearGradient-1">
            <stop stop-color="#69C1CB" offset="0%"></stop>
            <stop stop-color="#0691A3" offset="100%"></stop>
        </linearGradient>
        <path d="M31.375,-0.0001 C29.778,0.0209 28.643,0.9429 28.643,0.9429 C28.643,0.9429 12.478,17.1939 3.619,26.0979 C0.963,28.7669 0.02,30.8879 0,32.5479 L0,32.6539 C0.046,36.4489 4.949,37.7909 4.949,37.7909 C16.445,43.1769 34.005,48.9799 34.005,48.9799 L48.122,63.0229 L63.246,47.8199 L48.839,33.5609 L37.134,4.9819 C35.262,1.0319 33.14,0.0229 31.485,-0.0001 L31.375,-0.0001 Z" id="path-2"></path>
        <linearGradient x1="50%" y1="0%" x2="50%" y2="100%" id="linearGradient-4">
            <stop stop-color="#57C0E7" offset="0%"></stop>
            <stop stop-color="#0676A7" offset="100%"></stop>
        </linearGradient>
        <path d="M12.4058751,0 L12.4558751,19.695 L0.788875132,47.344 C-2.08712487,55.335 3.82587513,55.961 3.82587513,55.961 L38.3028751,55.961 C50.5068751,55.961 45.4458751,47.031 45.4458751,47.031 C41.2788751,35.422 33.2418751,19.349 33.2418751,19.349 L33.2418751,0 L12.4058751,0 Z" id="path-5"></path>
        <polygon id="path-7" points="0.4493 0.191 1.4493 0.191 1.4493 1.1909 0.4493 1.1909"></polygon>
    </defs>
    <g id="Desktop-HD" stroke="none" stroke-width="1" fill="none" fill-rule="evenodd" transform="translate(-457.000000, -431.000000)">
        <g id="Group" transform="translate(457.000000, 431.000000)">
            <g id="Group-2">
                <g id="1">
                    <mask id="mask-3" fill="white">
                        <use xlink:href="#path-2"></use>
                    </mask>
                    <use id="Clip-2" fill="url(#linearGradient-1)" xlink:href="#path-2"></use>
                </g>
                <g id="2" transform="translate(38.000000, 71.000000)">
                    <mask id="mask-6" fill="white">
                        <use xlink:href="#path-5"></use>
                    </mask>
                    <use id="Clip-2" fill="url(#linearGradient-4)" xlink:href="#path-5"></use>
                </g>
                <g id="Page-1" transform="translate(51.000000, 86.000000)">
                    <path d="M24.2417,30.9366 C24.2417,33.6276 22.0607,35.8086 19.3697,35.8086 C16.6797,35.8086 14.4977,33.6276 14.4977,30.9366 C14.4977,28.2466 16.6797,26.0646 19.3697,26.0646 C22.0607,26.0646 24.2417,28.2466 24.2417,30.9366" id="Fill-1" fill="#FEFEFE"></path>
                    <path d="M8.8575,26.5079 C8.8575,28.9539 6.8745,30.9369 4.4285,30.9369 C1.9825,30.9369 0.0005,28.9539 0.0005,26.5079 C0.0005,24.0619 1.9825,22.0789 4.4285,22.0789 C6.8745,22.0789 8.8575,24.0619 8.8575,26.5079" id="Fill-3" fill="#FEFEFE"></path>
                    <path d="M5.1665,16.5489 C5.1665,17.9749 4.0105,19.1319 2.5835,19.1319 C1.1575,19.1319 0.0015,17.9749 0.0015,16.5489 C0.0015,15.1229 1.1575,13.9659 2.5835,13.9659 C4.0105,13.9659 5.1665,15.1229 5.1665,16.5489" id="Fill-5" fill="#FEFEFE"></path>
                    <path d="M16.1421,20.2379 C16.1421,21.7159 14.9441,22.9129 13.4671,22.9129 C11.9901,22.9129 10.7921,21.7159 10.7921,20.2379 C10.7921,18.7609 11.9901,17.5639 13.4671,17.5639 C14.9441,17.5639 16.1421,18.7609 16.1421,20.2379" id="Fill-7" fill="#FEFEFE"></path>
                    <path d="M16.1421,13.2286 C16.1421,14.1366 15.4061,14.8726 14.4981,14.8726 C13.5901,14.8726 12.8541,14.1366 12.8541,13.2286 C12.8541,12.3206 13.5901,11.5846 14.4981,11.5846 C15.4061,11.5846 16.1421,12.3206 16.1421,13.2286" id="Fill-9" fill="#FEFEFE"></path>
                    <path d="M10.5337,9.9083 C10.5337,10.8343 9.7837,11.5843 8.8577,11.5843 C7.9317,11.5843 7.1807,10.8343 7.1807,9.9083 C7.1807,8.9823 7.9317,8.2313 8.8577,8.2313 C9.7837,8.2313 10.5337,8.9823 10.5337,9.9083" id="Fill-11" fill="#FEFEFE"></path>
                    <path d="M6.3658,4.5587 C6.3658,5.2217 5.8288,5.7577 5.1668,5.7577 C4.5048,5.7577 3.9678,5.2217 3.9678,4.5587 C3.9678,3.8967 4.5048,3.3597 5.1668,3.3597 C5.8288,3.3597 6.3658,3.8967 6.3658,4.5587" id="Fill-13" fill="#FEFEFE"></path>
                    <path d="M11.9917,3.36 C11.9917,4.022 11.4547,4.559 10.7927,4.559 C10.1307,4.559 9.5937,4.022 9.5937,3.36 C9.5937,2.698 10.1307,2.161 10.7927,2.161 C11.4547,2.161 11.9917,2.698 11.9917,3.36" id="Fill-15" fill="#FEFEFE"></path>
                    <g id="Group-19" transform="translate(8.000000, 0.808700)">
                        <mask id="mask-8" fill="white">
                            <use xlink:href="#path-7"></use>
                        </mask>
                        <g id="Clip-18"></g>
                        <path d="M1.2823,0.6079 C1.2823,0.8379 1.0953,1.0249 0.8653,1.0249 C0.6363,1.0249 0.4493,0.8379 0.4493,0.6079 C0.4493,0.3779 0.6363,0.1909 0.8653,0.1909 C1.0953,0.1909 1.2823,0.3779 1.2823,0.6079" id="Fill-17" fill="#FEFEFE" mask="url(#mask-8)"></path>
                    </g>
                </g>
            </g>
        </g>
    </g>
</svg>