<?xml version="1.0" encoding="UTF-8"?>
<svg width="426px" height="97px" viewBox="0 0 426 97" version="1.1" xmlns="http://www.w3.org/2000/svg" xmlns:xlink="http://www.w3.org/1999/xlink">
    <!-- Generator: Sketch 48.2 (47327) - http://www.bohemiancoding.com/sketch -->
    <title>Logo</title>
    <desc>Created with Sketch.</desc>
    <defs>
        <polygon id="path-1" points="0.5696 0.5791 64.835 0.5791 64.835 49.5431 0.5696 49.5431"></polygon>
    </defs>
    <g id="Desktop-HD" stroke="none" stroke-width="1" fill="none" fill-rule="evenodd" transform="translate(-557.000000, -496.000000)">
        <g id="Group" transform="translate(457.000000, 431.000000)">
            <g id="Logo" transform="translate(100.000000, 65.000000)">
                <g id="Group-94" transform="translate(0.000000, 0.566000)">
                    <path d="M391.9069,73.5896 C392.1029,73.5896 392.1869,73.6456 392.1869,73.8136 L392.1869,73.8696 L391.8799,76.1936 C391.8799,76.3896 391.7669,76.5016 391.5989,76.5016 L389.1629,76.5016 C388.9949,76.5016 388.9389,76.4176 388.9389,76.2776 L388.9389,76.1936 L389.2189,73.8696 C389.2189,73.6736 389.3309,73.5896 389.5269,73.5896 L391.9069,73.5896 Z" id="Fill-1" fill="#1A171B"></path>
                    <path d="M44.9674,6.5192 C44.8824,7.1142 44.7124,7.4542 44.1174,7.4542 L26.4364,7.4542 L26.4364,57.5232 C26.4364,58.2032 26.2664,58.5432 25.5004,58.5432 L19.2104,58.5432 C18.6154,58.5432 18.3604,58.2032 18.3604,57.5232 L18.3604,7.4542 L1.1044,7.4542 C0.5094,7.4542 0.2534,7.1142 0.2534,6.5192 L0.2534,1.5882 C0.2534,0.9082 0.4244,0.7382 1.1894,0.7382 L44.8824,0.7382 C45.3074,0.7382 45.7334,0.9082 45.7334,1.3332 L45.7334,1.5032 L44.9674,6.5192 Z" id="Fill-5" fill="#414042"></path>
                    <path d="M67.3229,16.465 C58.9919,16.465 53.6359,21.055 53.6359,30.491 C53.6359,31.171 53.8059,31.341 54.4009,31.341 L80.7539,31.341 C81.3479,31.341 81.6889,31.256 81.6889,30.576 C81.4329,21.055 75.8229,16.465 67.3229,16.465 M90.0189,38.056 L54.4859,38.056 C53.9759,38.056 53.7209,38.141 53.7209,38.906 C54.0609,49.617 61.2869,51.998 71.7429,51.998 C75.6529,51.998 79.9889,51.657 84.5789,51.318 C84.9189,51.318 85.3439,51.403 85.3439,51.913 L85.3439,52.083 L84.5789,57.268 C84.4089,57.863 84.1539,57.863 83.5589,58.033 C79.3929,58.628 74.2929,59.138 68.8519,59.138 C54.3159,59.138 44.5409,53.103 44.5409,34.146 C44.5409,15.87 55.0819,9.664 67.8329,9.664 C83.3879,9.664 90.7849,18.335 90.7849,37.206 C90.7849,37.801 90.5289,38.056 90.0189,38.056" id="Fill-7" fill="#414042"></path>
                    <path d="M137.4459,58.1184 C134.3009,58.4584 129.0309,59.1384 124.6099,59.1384 C108.7139,59.1384 98.9379,51.4024 98.9379,33.8064 C98.9379,15.6154 111.8589,9.4944 124.5249,9.4944 C128.3499,9.4944 133.8759,10.0044 137.1059,10.4294 C137.7009,10.5144 137.9569,10.6844 137.9569,11.3644 L137.1059,16.1244 C137.0209,16.6354 136.8509,16.9744 136.3419,16.9744 L136.1719,16.9744 C132.9409,16.7204 129.7109,16.6354 125.7999,16.6354 C115.4289,16.6354 108.2039,21.1404 108.2039,33.7214 C108.2039,46.9824 115.4289,51.4874 125.7999,51.4874 C130.3049,51.4874 134.3009,51.3174 137.4459,51.1474 L137.7009,51.1474 C138.2119,51.1474 138.3819,51.4024 138.3819,51.9124 L138.3819,57.2684 C138.3819,57.7784 138.2119,57.9484 137.4459,58.1184" id="Fill-9" fill="#414042"></path>
                    <path d="M169.15,16.1247 C160.734,16.1247 153.849,20.7147 153.849,34.7417 C153.849,46.9817 160.139,52.1677 169.32,52.1677 C178.501,52.1677 184.877,46.8117 184.877,34.7417 C184.877,20.6297 177.821,16.1247 169.15,16.1247 M169.15,59.3937 C156.654,59.3937 144.838,51.4027 144.838,34.7417 C144.838,17.3997 155.379,9.4097 169.235,9.4097 C183.176,9.4097 193.717,17.2297 193.717,34.7417 C193.717,51.2327 182.326,59.3937 169.15,59.3937" id="Fill-11" fill="#414042"></path>
                    <path d="M267.651,54.4626 C263.315,56.7576 255.24,59.2236 247.505,59.2236 C228.208,59.2236 216.817,49.8726 216.817,29.4706 C216.817,7.5396 231.948,0.3986 247.25,0.3986 C253.03,0.3986 257.45,0.7386 262.72,1.4186 C263.23,1.5036 263.315,1.6736 263.315,1.9286 L263.315,2.2686 L262.38,7.4546 C262.296,7.9636 262.041,8.0486 261.615,8.0486 C257.79,7.7946 253.115,7.4546 248.014,7.4546 C236.794,7.4546 226.168,11.4496 226.168,29.0456 C226.168,45.8776 233.563,51.4876 248.014,51.4876 C249.799,51.4876 256.515,51.2326 259.575,49.3626 L259.575,30.4056 C259.575,29.8956 259.83,29.6406 260.425,29.4706 L267.736,28.7056 L267.906,28.7056 C268.416,28.7056 268.586,29.0456 268.586,29.4706 L268.586,53.1876 C268.586,53.6976 268.246,54.1226 267.651,54.4626" id="Fill-13" fill="#414042"></path>
                    <path d="M299.694,16.7199 C295.954,16.7199 293.148,16.9749 289.493,17.2299 C288.813,17.3149 288.558,17.5699 288.558,18.0799 L288.558,57.6929 C288.558,58.2879 288.387,58.5429 287.793,58.5429 L280.397,58.5429 C279.972,58.5429 279.632,58.2879 279.632,57.6929 L279.632,12.6389 C279.632,12.0449 279.887,11.7039 280.482,11.5339 C286.262,10.7689 292.893,9.8339 299.779,9.5789 C300.289,9.5789 300.544,9.9189 300.544,10.4289 L300.544,16.0399 C300.544,16.4649 300.289,16.7199 299.694,16.7199" id="Fill-15" fill="#414042"></path>
                    <path d="M339.5592,34.9113 C339.5592,34.4013 339.3892,34.0613 338.6242,34.0613 L327.1482,34.0613 C321.2832,34.0613 315.3322,34.8263 315.3322,41.9673 C315.3322,50.3823 321.4532,51.4873 326.7232,51.4873 L338.6242,51.4873 C339.3892,51.4873 339.5592,51.3173 339.5592,50.6373 L339.5592,34.9113 Z M348.4852,56.5033 C348.4852,57.1833 348.3152,57.5233 347.4652,57.6933 C341.0042,58.3733 331.5692,59.3933 326.8932,59.3933 C317.3722,59.3933 306.1522,56.3333 306.1522,41.9673 C306.1522,28.1963 319.3282,27.0903 326.3832,27.0903 C329.8692,27.0903 336.8392,27.7703 339.3892,28.1103 C339.3892,18.3353 333.6942,16.6353 325.1932,16.6353 C320.6882,16.6353 316.5232,16.9743 313.3772,17.2293 L313.1222,17.2293 C312.6122,17.2293 312.3572,16.9743 312.2722,16.5503 L311.4222,11.3643 L311.4222,11.2793 C311.4222,10.8543 311.7622,10.5993 312.2722,10.5993 C316.6082,10.0043 322.7282,9.5793 326.5532,9.5793 C339.7292,9.5793 348.4852,13.6603 348.4852,26.8353 L348.4852,56.5033 Z" id="Fill-17" fill="#414042"></path>
                    <g id="Group-21" transform="translate(361.000000, 9.000000)">
                        <mask id="mask-2" fill="white">
                            <use xlink:href="#path-1"></use>
                        </mask>
                        <g id="Clip-20"></g>
                        <path d="M64.8356,48.6081 C64.8356,49.2881 64.6656,49.5431 64.0696,49.5431 L56.7596,49.5431 C56.1646,49.5431 55.9946,49.3731 55.9946,48.6931 L55.9096,19.0251 C55.9096,10.2701 51.2336,7.5501 45.9636,7.5501 L41.9686,7.5501 C39.7586,7.5501 37.3786,7.5501 36.5276,7.7201 C35.9336,7.8901 35.7636,7.9751 35.7636,8.4001 L35.7636,8.6551 C36.8676,14.0101 37.2086,19.1961 37.2086,24.0411 L37.2086,48.6931 C37.2086,49.3731 37.0376,49.5431 36.3576,49.5431 L29.1326,49.5431 C28.3676,49.5431 28.1976,49.3731 28.1976,48.6931 L28.1976,18.9411 C28.1976,9.7601 24.0316,7.5501 17.9116,7.5501 L10.4316,7.7201 C9.7506,7.7201 9.5806,7.8051 9.5806,8.4851 L9.5806,48.6931 C9.5806,49.3731 9.4106,49.5431 8.7316,49.5431 L1.4206,49.5431 C0.8256,49.5431 0.5696,49.3731 0.5696,48.6931 L0.5696,3.4691 C0.5696,2.7041 0.6546,2.4491 1.4206,2.3641 C4.9906,1.8541 12.2166,0.5791 17.4866,0.5791 L19.0176,0.5791 C21.7366,0.5791 24.4576,0.6641 29.8976,2.1941 L31.0876,2.1941 C34.0636,1.5991 38.6526,0.5791 45.6236,0.5791 C58.0346,0.5791 64.8356,6.1901 64.8356,20.2161 L64.8356,48.6081 Z" id="Fill-19" fill="#414042" mask="url(#mask-2)"></path>
                    </g>
                    <path d="M168.4147,76.3054 C168.6397,76.3054 168.6947,76.3894 168.6947,76.5854 L166.6787,92.8254 C166.6787,92.9934 166.7347,93.0214 166.9027,93.0214 L175.6667,93.0214 C175.8347,93.0214 175.9187,93.0774 175.9187,93.1894 L175.9187,93.2734 L175.4427,95.0934 C175.3867,95.2614 175.2747,95.3454 175.1067,95.3454 L163.6837,95.3454 C163.5157,95.3454 163.4317,95.2894 163.4317,95.1214 L163.4317,95.0374 L165.6987,76.5854 C165.7267,76.4454 165.8387,76.3054 166.0347,76.3054 L168.4147,76.3054 Z" id="Fill-22" fill="#1A171B"></path>
                    <path d="M168.4147,76.3054 C168.6397,76.3054 168.6947,76.3894 168.6947,76.5854 L166.6787,92.8254 C166.6787,92.9934 166.7347,93.0214 166.9027,93.0214 L175.6667,93.0214 C175.8347,93.0214 175.9187,93.0774 175.9187,93.1894 L175.9187,93.2734 L175.4427,95.0934 C175.3867,95.2614 175.2747,95.3454 175.1067,95.3454 L163.6837,95.3454 C163.5157,95.3454 163.4317,95.2894 163.4317,95.1214 L163.4317,95.0374 L165.6987,76.5854 C165.7267,76.4454 165.8387,76.3054 166.0347,76.3054 L168.4147,76.3054 Z" id="Stroke-24"></path>
                    <path d="M184.9342,87.2814 C182.9742,87.2814 181.0142,87.5054 180.7062,89.8854 C180.6782,90.0814 180.6782,90.2774 180.6782,90.4454 C180.6782,92.7134 182.4982,93.0214 184.1222,93.0214 L188.0142,93.0214 C188.2662,93.0214 188.3222,92.9654 188.3502,92.7414 L188.9952,87.5614 L188.9952,87.5054 C188.9952,87.3654 188.9112,87.2814 188.7432,87.2814 L184.9342,87.2814 Z M191.0382,94.6734 C191.0382,94.8974 190.9262,95.0094 190.6462,95.0654 C188.5462,95.2894 185.3542,95.6254 183.8422,95.6254 C180.9302,95.6254 177.6542,94.7574 177.6542,90.8374 C177.6542,90.5294 177.6542,90.2214 177.7102,89.8854 C178.2702,85.3494 182.6382,84.9854 184.9912,84.9854 C186.0822,84.9854 188.4062,85.2094 189.2462,85.3214 C189.3022,84.9574 189.3302,84.5934 189.3302,84.2854 C189.3302,82.0174 187.7342,81.5414 185.0462,81.5414 C183.5622,81.5414 182.1342,81.6534 181.0982,81.7374 L181.0142,81.7374 C180.8182,81.7374 180.7622,81.6534 180.7622,81.5134 L180.6502,79.8054 C180.6502,79.6654 180.7902,79.5534 181.0142,79.5534 C182.4422,79.3574 184.4862,79.2174 185.7462,79.2174 C189.6662,79.2174 192.2982,80.3094 192.2982,83.8374 C192.2982,84.1734 192.2982,84.5374 192.2432,84.9014 L191.0382,94.6734 Z" id="Fill-26" fill="#1A171B"></path>
                    <path d="M184.9342,87.2814 C182.9742,87.2814 181.0142,87.5054 180.7062,89.8854 C180.6782,90.0814 180.6782,90.2774 180.6782,90.4454 C180.6782,92.7134 182.4982,93.0214 184.1222,93.0214 L188.0142,93.0214 C188.2662,93.0214 188.3222,92.9654 188.3502,92.7414 L188.9952,87.5614 L188.9952,87.5054 C188.9952,87.3654 188.9112,87.2814 188.7432,87.2814 L184.9342,87.2814 Z M191.0382,94.6734 C191.0382,94.8974 190.9262,95.0094 190.6462,95.0654 C188.5462,95.2894 185.3542,95.6254 183.8422,95.6254 C180.9302,95.6254 177.6542,94.7574 177.6542,90.8374 C177.6542,90.5294 177.6542,90.2214 177.7102,89.8854 C178.2702,85.3494 182.6382,84.9854 184.9912,84.9854 C186.0822,84.9854 188.4062,85.2094 189.2462,85.3214 C189.3022,84.9574 189.3302,84.5934 189.3302,84.2854 C189.3302,82.0174 187.7342,81.5414 185.0462,81.5414 C183.5622,81.5414 182.1342,81.6534 181.0982,81.7374 L181.0142,81.7374 C180.8182,81.7374 180.7622,81.6534 180.7622,81.5134 L180.6502,79.8054 C180.6502,79.6654 180.7902,79.5534 181.0142,79.5534 C182.4422,79.3574 184.4862,79.2174 185.7462,79.2174 C189.6662,79.2174 192.2982,80.3094 192.2982,83.8374 C192.2982,84.1734 192.2982,84.5374 192.2432,84.9014 L191.0382,94.6734 Z" id="Stroke-28"></path>
                    <path d="M207.6705,85.9934 C207.6705,82.8014 205.8785,81.5414 203.0785,81.5414 C202.1825,81.5414 200.8665,81.5974 200.1385,81.6814 C199.9705,81.7094 199.8585,81.8214 199.8305,82.0174 L198.5425,92.6014 L198.5425,92.6854 C198.5425,92.8254 198.5985,92.8814 198.7385,92.9374 C199.4105,92.9934 200.6145,93.1054 201.3995,93.1054 C204.1985,93.1054 207.0545,91.6774 207.5865,87.2814 C207.6425,86.8334 207.6705,86.4134 207.6705,85.9934 M201.2025,95.5134 C199.4105,95.5134 197.3115,95.0934 195.6585,94.8414 C195.4625,94.7854 195.3515,94.6454 195.3515,94.4494 L195.3515,94.3654 L197.8425,74.1214 C197.8705,73.9534 197.9545,73.8694 198.1505,73.8414 L200.5865,73.5614 C200.7545,73.5894 200.8115,73.6454 200.8115,73.7574 L200.8115,73.8694 L200.1665,79.2454 C200.1665,79.4134 200.1945,79.4974 200.3905,79.4974 C201.6785,79.3574 202.7715,79.2454 204.0865,79.2454 C208.0345,79.2454 210.7505,81.2894 210.7505,85.6014 C210.7505,86.0494 210.7225,86.5254 210.6665,87.0294 C209.9105,93.1614 205.7945,95.5134 201.2025,95.5134" id="Fill-30" fill="#1A171B"></path>
                    <path d="M207.6705,85.9934 C207.6705,82.8014 205.8785,81.5414 203.0785,81.5414 C202.1825,81.5414 200.8665,81.5974 200.1385,81.6814 C199.9705,81.7094 199.8585,81.8214 199.8305,82.0174 L198.5425,92.6014 L198.5425,92.6854 C198.5425,92.8254 198.5985,92.8814 198.7385,92.9374 C199.4105,92.9934 200.6145,93.1054 201.3995,93.1054 C204.1985,93.1054 207.0545,91.6774 207.5865,87.2814 C207.6425,86.8334 207.6705,86.4134 207.6705,85.9934 Z M201.2025,95.5134 C199.4105,95.5134 197.3115,95.0934 195.6585,94.8414 C195.4625,94.7854 195.3515,94.6454 195.3515,94.4494 L195.3515,94.3654 L197.8425,74.1214 C197.8705,73.9534 197.9545,73.8694 198.1505,73.8414 L200.5865,73.5614 C200.7545,73.5894 200.8115,73.6454 200.8115,73.7574 L200.8115,73.8694 L200.1665,79.2454 C200.1665,79.4134 200.1945,79.4974 200.3905,79.4974 C201.6785,79.3574 202.7715,79.2454 204.0865,79.2454 C208.0345,79.2454 210.7505,81.2894 210.7505,85.6014 C210.7505,86.0494 210.7225,86.5254 210.6665,87.0294 C209.9105,93.1614 205.7945,95.5134 201.2025,95.5134 Z" id="Stroke-32"></path>
                    <path d="M226.5699,86.1057 C226.5699,82.5497 224.6099,81.3737 222.0619,81.3737 C219.2899,81.3737 216.8259,82.8857 216.2659,87.5057 C216.2099,87.9537 216.1819,88.3737 216.1819,88.7377 C216.1819,91.9017 217.9739,93.2457 220.6339,93.2457 C223.6579,93.2457 225.9819,91.4817 226.4859,87.5057 C226.5419,87.0017 226.5699,86.5537 226.5699,86.1057 M220.3259,95.6257 C216.5179,95.6257 213.2149,93.4137 213.2149,88.7937 C213.2149,88.4017 213.2419,87.9537 213.2989,87.5057 C213.9979,81.7937 217.8059,79.1617 222.3699,79.1617 C226.5139,79.1617 229.4819,81.2897 229.4819,85.9657 C229.4819,86.4417 229.4539,86.9737 229.3979,87.5057 C228.7259,92.9377 224.6379,95.6257 220.3259,95.6257" id="Fill-34" fill="#1A171B"></path>
                    <path d="M226.5699,86.1057 C226.5699,82.5497 224.6099,81.3737 222.0619,81.3737 C219.2899,81.3737 216.8259,82.8857 216.2659,87.5057 C216.2099,87.9537 216.1819,88.3737 216.1819,88.7377 C216.1819,91.9017 217.9739,93.2457 220.6339,93.2457 C223.6579,93.2457 225.9819,91.4817 226.4859,87.5057 C226.5419,87.0017 226.5699,86.5537 226.5699,86.1057 Z M220.3259,95.6257 C216.5179,95.6257 213.2149,93.4137 213.2149,88.7937 C213.2149,88.4017 213.2419,87.9537 213.2989,87.5057 C213.9979,81.7937 217.8059,79.1617 222.3699,79.1617 C226.5139,79.1617 229.4819,81.2897 229.4819,85.9657 C229.4819,86.4417 229.4539,86.9737 229.3979,87.5057 C228.7259,92.9377 224.6379,95.6257 220.3259,95.6257 Z" id="Stroke-36"></path>
                    <path d="M236.65,82.0173 L235.053,95.0653 C235.026,95.2613 234.942,95.3453 234.746,95.3453 L232.338,95.3453 C232.17,95.3453 232.086,95.2893 232.086,95.1213 L232.086,95.0653 L233.906,80.2253 C233.934,80.0293 234.046,79.9173 234.242,79.8613 C236.173,79.6093 238.414,79.3013 240.654,79.2173 C240.822,79.2173 240.878,79.3013 240.878,79.4133 L240.878,79.4973 L240.654,81.3453 C240.626,81.4853 240.542,81.5693 240.374,81.5693 C239.142,81.5693 238.19,81.6533 236.958,81.7373 C236.761,81.7653 236.677,81.8493 236.65,82.0173" id="Fill-38" fill="#1A171B"></path>
                    <path d="M236.65,82.0173 L235.053,95.0653 C235.026,95.2613 234.942,95.3453 234.746,95.3453 L232.338,95.3453 C232.17,95.3453 232.086,95.2893 232.086,95.1213 L232.086,95.0653 L233.906,80.2253 C233.934,80.0293 234.046,79.9173 234.242,79.8613 C236.173,79.6093 238.414,79.3013 240.654,79.2173 C240.822,79.2173 240.878,79.3013 240.878,79.4133 L240.878,79.4973 L240.654,81.3453 C240.626,81.4853 240.542,81.5693 240.374,81.5693 C239.142,81.5693 238.19,81.6533 236.958,81.7373 C236.761,81.7653 236.677,81.8493 236.65,82.0173 Z" id="Stroke-40"></path>
                    <path d="M248.8297,87.2814 C246.8697,87.2814 244.9097,87.5054 244.6017,89.8854 C244.5737,90.0814 244.5737,90.2774 244.5737,90.4454 C244.5737,92.7134 246.3937,93.0214 248.0177,93.0214 L251.9097,93.0214 C252.1617,93.0214 252.2177,92.9654 252.2457,92.7414 L252.8907,87.5614 L252.8907,87.5054 C252.8907,87.3654 252.8067,87.2814 252.6387,87.2814 L248.8297,87.2814 Z M254.9337,94.6734 C254.9337,94.8974 254.8217,95.0094 254.5417,95.0654 C252.4417,95.2894 249.2497,95.6254 247.7377,95.6254 C244.8257,95.6254 241.5497,94.7574 241.5497,90.8374 C241.5497,90.5294 241.5497,90.2214 241.6057,89.8854 C242.1657,85.3494 246.5337,84.9854 248.8867,84.9854 C249.9777,84.9854 252.3017,85.2094 253.1417,85.3214 C253.1977,84.9574 253.2257,84.5934 253.2257,84.2854 C253.2257,82.0174 251.6297,81.5414 248.9417,81.5414 C247.4577,81.5414 246.0297,81.6534 244.9937,81.7374 L244.9097,81.7374 C244.7137,81.7374 244.6577,81.6534 244.6577,81.5134 L244.5457,79.8054 C244.5457,79.6654 244.6857,79.5534 244.9097,79.5534 C246.3377,79.3574 248.3817,79.2174 249.6417,79.2174 C253.5617,79.2174 256.1937,80.3094 256.1937,83.8374 C256.1937,84.1734 256.1937,84.5374 256.1387,84.9014 L254.9337,94.6734 Z" id="Fill-42" fill="#1A171B"></path>
                    <path d="M248.8297,87.2814 C246.8697,87.2814 244.9097,87.5054 244.6017,89.8854 C244.5737,90.0814 244.5737,90.2774 244.5737,90.4454 C244.5737,92.7134 246.3937,93.0214 248.0177,93.0214 L251.9097,93.0214 C252.1617,93.0214 252.2177,92.9654 252.2457,92.7414 L252.8907,87.5614 L252.8907,87.5054 C252.8907,87.3654 252.8067,87.2814 252.6387,87.2814 L248.8297,87.2814 Z M254.9337,94.6734 C254.9337,94.8974 254.8217,95.0094 254.5417,95.0654 C252.4417,95.2894 249.2497,95.6254 247.7377,95.6254 C244.8257,95.6254 241.5497,94.7574 241.5497,90.8374 C241.5497,90.5294 241.5497,90.2214 241.6057,89.8854 C242.1657,85.3494 246.5337,84.9854 248.8867,84.9854 C249.9777,84.9854 252.3017,85.2094 253.1417,85.3214 C253.1977,84.9574 253.2257,84.5934 253.2257,84.2854 C253.2257,82.0174 251.6297,81.5414 248.9417,81.5414 C247.4577,81.5414 246.0297,81.6534 244.9937,81.7374 L244.9097,81.7374 C244.7137,81.7374 244.6577,81.6534 244.6577,81.5134 L244.5457,79.8054 C244.5457,79.6654 244.6857,79.5534 244.9097,79.5534 C246.3377,79.3574 248.3817,79.2174 249.6417,79.2174 C253.5617,79.2174 256.1937,80.3094 256.1937,83.8374 C256.1937,84.1734 256.1937,84.5374 256.1387,84.9014 L254.9337,94.6734 Z" id="Stroke-44"></path>
                    <path d="M265.069,74.8215 C265.265,74.8215 265.321,74.9055 265.321,75.0175 L265.321,75.1015 L264.845,79.0775 L264.845,79.1615 C264.845,79.3015 264.929,79.3575 265.097,79.3575 L268.122,79.3575 C268.29,79.3575 268.345,79.4415 268.345,79.5535 L268.345,79.6375 L268.206,80.9815 C268.177,81.1495 268.122,81.2615 267.897,81.2615 L264.874,81.2615 C264.677,81.2615 264.565,81.3455 264.538,81.5415 L263.418,90.7255 C263.389,91.0335 263.361,91.2855 263.361,91.5095 C263.361,92.6295 263.838,93.0215 265.517,93.0215 L267.197,93.0215 C267.393,93.0215 267.449,93.1055 267.449,93.2175 L267.449,93.3015 L266.945,94.9815 C266.918,95.1215 266.805,95.2055 266.609,95.2335 C265.462,95.3735 264.874,95.4855 263.809,95.4855 C261.401,95.4855 260.309,94.4495 260.309,92.3775 C260.309,92.0975 260.309,91.7895 260.365,91.4815 L261.569,81.5415 L261.569,81.4575 C261.569,81.3175 261.513,81.2615 261.345,81.2615 L259.441,81.2615 C259.273,81.2615 259.189,81.1775 259.189,81.0375 L259.189,80.9535 L259.357,79.6095 C259.385,79.4415 259.498,79.3575 259.666,79.3575 L261.569,79.3575 C261.794,79.3575 261.878,79.2735 261.905,79.0775 L262.325,75.3535 C262.353,75.1855 262.437,75.1015 262.662,75.0735 L265.069,74.8215 Z" id="Fill-46" fill="#1A171B"></path>
                    <path d="M265.069,74.8215 C265.265,74.8215 265.321,74.9055 265.321,75.0175 L265.321,75.1015 L264.845,79.0775 L264.845,79.1615 C264.845,79.3015 264.929,79.3575 265.097,79.3575 L268.122,79.3575 C268.29,79.3575 268.345,79.4415 268.345,79.5535 L268.345,79.6375 L268.206,80.9815 C268.177,81.1495 268.122,81.2615 267.897,81.2615 L264.874,81.2615 C264.677,81.2615 264.565,81.3455 264.538,81.5415 L263.418,90.7255 C263.389,91.0335 263.361,91.2855 263.361,91.5095 C263.361,92.6295 263.838,93.0215 265.517,93.0215 L267.197,93.0215 C267.393,93.0215 267.449,93.1055 267.449,93.2175 L267.449,93.3015 L266.945,94.9815 C266.918,95.1215 266.805,95.2055 266.609,95.2335 C265.462,95.3735 264.874,95.4855 263.809,95.4855 C261.401,95.4855 260.309,94.4495 260.309,92.3775 C260.309,92.0975 260.309,91.7895 260.365,91.4815 L261.569,81.5415 L261.569,81.4575 C261.569,81.3175 261.513,81.2615 261.345,81.2615 L259.441,81.2615 C259.273,81.2615 259.189,81.1775 259.189,81.0375 L259.189,80.9535 L259.357,79.6095 C259.385,79.4415 259.498,79.3575 259.666,79.3575 L261.569,79.3575 C261.794,79.3575 261.878,79.2735 261.905,79.0775 L262.325,75.3535 C262.353,75.1855 262.437,75.1015 262.662,75.0735 L265.069,74.8215 Z" id="Stroke-48"></path>
                    <path d="M283.4655,86.1057 C283.4655,82.5497 281.5055,81.3737 278.9575,81.3737 C276.1855,81.3737 273.7215,82.8857 273.1615,87.5057 C273.1055,87.9537 273.0775,88.3737 273.0775,88.7377 C273.0775,91.9017 274.8695,93.2457 277.5295,93.2457 C280.5535,93.2457 282.8775,91.4817 283.3815,87.5057 C283.4375,87.0017 283.4655,86.5537 283.4655,86.1057 M277.2215,95.6257 C273.4135,95.6257 270.1105,93.4137 270.1105,88.7937 C270.1105,88.4017 270.1375,87.9537 270.1945,87.5057 C270.8935,81.7937 274.7015,79.1617 279.2655,79.1617 C283.4095,79.1617 286.3775,81.2897 286.3775,85.9657 C286.3775,86.4417 286.3495,86.9737 286.2935,87.5057 C285.6215,92.9377 281.5335,95.6257 277.2215,95.6257" id="Fill-50" fill="#1A171B"></path>
                    <path d="M283.4655,86.1057 C283.4655,82.5497 281.5055,81.3737 278.9575,81.3737 C276.1855,81.3737 273.7215,82.8857 273.1615,87.5057 C273.1055,87.9537 273.0775,88.3737 273.0775,88.7377 C273.0775,91.9017 274.8695,93.2457 277.5295,93.2457 C280.5535,93.2457 282.8775,91.4817 283.3815,87.5057 C283.4375,87.0017 283.4655,86.5537 283.4655,86.1057 Z M277.2215,95.6257 C273.4135,95.6257 270.1105,93.4137 270.1105,88.7937 C270.1105,88.4017 270.1375,87.9537 270.1945,87.5057 C270.8935,81.7937 274.7015,79.1617 279.2655,79.1617 C283.4095,79.1617 286.3775,81.2897 286.3775,85.9657 C286.3775,86.4417 286.3495,86.9737 286.2935,87.5057 C285.6215,92.9377 281.5335,95.6257 277.2215,95.6257 Z" id="Stroke-52"></path>
                    <path d="M293.5455,82.0173 L291.9485,95.0653 C291.9215,95.2613 291.8375,95.3453 291.6415,95.3453 L289.2335,95.3453 C289.0655,95.3453 288.9815,95.2893 288.9815,95.1213 L288.9815,95.0653 L290.8015,80.2253 C290.8295,80.0293 290.9415,79.9173 291.1375,79.8613 C293.0685,79.6093 295.3095,79.3013 297.5495,79.2173 C297.7175,79.2173 297.7735,79.3013 297.7735,79.4133 L297.7735,79.4973 L297.5495,81.3453 C297.5215,81.4853 297.4375,81.5693 297.2695,81.5693 C296.0375,81.5693 295.0855,81.6533 293.8535,81.7373 C293.6565,81.7653 293.5725,81.8493 293.5455,82.0173" id="Fill-54" fill="#1A171B"></path>
                    <path d="M293.5455,82.0173 L291.9485,95.0653 C291.9215,95.2613 291.8375,95.3453 291.6415,95.3453 L289.2335,95.3453 C289.0655,95.3453 288.9815,95.2893 288.9815,95.1213 L288.9815,95.0653 L290.8015,80.2253 C290.8295,80.0293 290.9415,79.9173 291.1375,79.8613 C293.0685,79.6093 295.3095,79.3013 297.5495,79.2173 C297.7175,79.2173 297.7735,79.3013 297.7735,79.4133 L297.7735,79.4973 L297.5495,81.3453 C297.5215,81.4853 297.4375,81.5693 297.2695,81.5693 C296.0375,81.5693 295.0855,81.6533 293.8535,81.7373 C293.6565,81.7653 293.5725,81.8493 293.5455,82.0173 Z" id="Stroke-56"></path>
                    <path d="M304.941,73.8415 C305.137,73.8415 305.221,73.8975 305.221,74.0655 L305.221,74.1215 L304.914,76.4455 C304.914,76.6415 304.801,76.7535 304.633,76.7535 L302.197,76.7535 C302.029,76.7535 301.973,76.6695 301.973,76.5295 L301.973,76.4455 L302.253,74.1215 C302.253,73.9255 302.365,73.8415 302.561,73.8415 L304.941,73.8415 Z M304.241,79.3575 C304.465,79.3575 304.521,79.4135 304.521,79.5535 L304.521,79.6095 L302.617,95.0655 C302.589,95.2615 302.533,95.3455 302.309,95.3455 L299.901,95.3455 C299.706,95.3455 299.649,95.2895 299.649,95.1495 L299.649,95.0655 L301.553,79.6375 C301.553,79.4695 301.666,79.3575 301.889,79.3575 L304.241,79.3575 Z" id="Fill-58" fill="#1A171B"></path>
                    <path d="M304.941,73.8415 C305.137,73.8415 305.221,73.8975 305.221,74.0655 L305.221,74.1215 L304.914,76.4455 C304.914,76.6415 304.801,76.7535 304.633,76.7535 L302.197,76.7535 C302.029,76.7535 301.973,76.6695 301.973,76.5295 L301.973,76.4455 L302.253,74.1215 C302.253,73.9255 302.365,73.8415 302.561,73.8415 L304.941,73.8415 Z M304.241,79.3575 C304.465,79.3575 304.521,79.4135 304.521,79.5535 L304.521,79.6095 L302.617,95.0655 C302.589,95.2615 302.533,95.3455 302.309,95.3455 L299.901,95.3455 C299.706,95.3455 299.649,95.2895 299.649,95.1495 L299.649,95.0655 L301.553,79.6375 C301.553,79.4695 301.666,79.3575 301.889,79.3575 L304.241,79.3575 Z" id="Stroke-60"></path>
                    <path d="M320.4254,86.1057 C320.4254,82.5497 318.4654,81.3737 315.9174,81.3737 C313.1454,81.3737 310.6814,82.8857 310.1214,87.5057 C310.0654,87.9537 310.0374,88.3737 310.0374,88.7377 C310.0374,91.9017 311.8294,93.2457 314.4894,93.2457 C317.5134,93.2457 319.8374,91.4817 320.3414,87.5057 C320.3974,87.0017 320.4254,86.5537 320.4254,86.1057 M314.1814,95.6257 C310.3734,95.6257 307.0704,93.4137 307.0704,88.7937 C307.0704,88.4017 307.0974,87.9537 307.1544,87.5057 C307.8534,81.7937 311.6614,79.1617 316.2254,79.1617 C320.3694,79.1617 323.3374,81.2897 323.3374,85.9657 C323.3374,86.4417 323.3094,86.9737 323.2534,87.5057 C322.5814,92.9377 318.4934,95.6257 314.1814,95.6257" id="Fill-62" fill="#1A171B"></path>
                    <path d="M320.4254,86.1057 C320.4254,82.5497 318.4654,81.3737 315.9174,81.3737 C313.1454,81.3737 310.6814,82.8857 310.1214,87.5057 C310.0654,87.9537 310.0374,88.3737 310.0374,88.7377 C310.0374,91.9017 311.8294,93.2457 314.4894,93.2457 C317.5134,93.2457 319.8374,91.4817 320.3414,87.5057 C320.3974,87.0017 320.4254,86.5537 320.4254,86.1057 Z M314.1814,95.6257 C310.3734,95.6257 307.0704,93.4137 307.0704,88.7937 C307.0704,88.4017 307.0974,87.9537 307.1544,87.5057 C307.8534,81.7937 311.6614,79.1617 316.2254,79.1617 C320.3694,79.1617 323.3374,81.2897 323.3374,85.9657 C323.3374,86.4417 323.3094,86.9737 323.2534,87.5057 C322.5814,92.9377 318.4934,95.6257 314.1814,95.6257 Z" id="Stroke-64"></path>
                    <path d="M347.8375,95.0373 C346.3245,95.2893 344.8135,95.5693 343.1895,95.5693 C337.9255,95.5693 334.2575,93.5253 334.2575,87.6733 C334.2575,87.0293 334.3135,86.3293 334.3975,85.6013 C335.2655,78.5453 340.0535,76.1933 345.4005,76.1933 C346.7175,76.1933 348.4815,76.3613 350.0215,76.5293 C350.1335,76.5573 350.2175,76.6413 350.2175,76.7533 C350.2175,76.8093 350.2175,76.8653 350.1895,76.9213 L349.7405,78.4613 C349.6565,78.6853 349.5455,78.7133 349.3495,78.7133 C348.0615,78.6293 346.6335,78.5173 345.2895,78.5173 C341.3135,78.5173 338.1495,79.9453 337.4485,85.6293 C337.3645,86.3013 337.3375,86.8893 337.3375,87.4493 C337.3375,91.7053 339.6615,93.0213 343.6655,93.0213 C345.1495,93.0213 346.2695,92.9093 348.1455,92.7693 C348.3135,92.7693 348.3695,92.8253 348.3695,92.9933 L348.3695,93.0773 L348.1735,94.7013 C348.1735,94.9253 348.0895,95.0093 347.8375,95.0373" id="Fill-66" fill="#1A171B"></path>
                    <path d="M347.8375,95.0373 C346.3245,95.2893 344.8135,95.5693 343.1895,95.5693 C337.9255,95.5693 334.2575,93.5253 334.2575,87.6733 C334.2575,87.0293 334.3135,86.3293 334.3975,85.6013 C335.2655,78.5453 340.0535,76.1933 345.4005,76.1933 C346.7175,76.1933 348.4815,76.3613 350.0215,76.5293 C350.1335,76.5573 350.2175,76.6413 350.2175,76.7533 C350.2175,76.8093 350.2175,76.8653 350.1895,76.9213 L349.7405,78.4613 C349.6565,78.6853 349.5455,78.7133 349.3495,78.7133 C348.0615,78.6293 346.6335,78.5173 345.2895,78.5173 C341.3135,78.5173 338.1495,79.9453 337.4485,85.6293 C337.3645,86.3013 337.3375,86.8893 337.3375,87.4493 C337.3375,91.7053 339.6615,93.0213 343.6655,93.0213 C345.1495,93.0213 346.2695,92.9093 348.1455,92.7693 C348.3135,92.7693 348.3695,92.8253 348.3695,92.9933 L348.3695,93.0773 L348.1735,94.7013 C348.1735,94.9253 348.0895,95.0093 347.8375,95.0373 Z" id="Stroke-68"></path>
                    <path d="M357.0768,73.5896 C357.3018,73.5896 357.3568,73.6456 357.3568,73.7856 L357.3568,73.8696 L354.7808,95.0656 C354.7528,95.2616 354.6968,95.3456 354.4728,95.3456 L352.0648,95.3456 C351.8688,95.3456 351.8128,95.3176 351.8128,95.1496 L351.8128,95.0656 L354.3608,74.1496 C354.3888,73.9256 354.4728,73.8976 354.6688,73.8696 L357.0768,73.5896 Z" id="Fill-70" fill="#1A171B"></path>
                    <path d="M357.0768,73.5896 C357.3018,73.5896 357.3568,73.6456 357.3568,73.7856 L357.3568,73.8696 L354.7808,95.0656 C354.7528,95.2616 354.6968,95.3456 354.4728,95.3456 L352.0648,95.3456 C351.8688,95.3456 351.8128,95.3176 351.8128,95.1496 L351.8128,95.0656 L354.3608,74.1496 C354.3888,73.9256 354.4728,73.8976 354.6688,73.8696 L357.0768,73.5896 Z" id="Stroke-72"></path>
                    <path d="M360.4088,75.6057 C360.4088,75.4937 360.4648,75.4657 360.6608,75.3537 L367.4358,72.0777 C367.5198,72.0497 367.6038,72.0217 367.6608,72.0217 C367.8008,72.0217 367.8848,72.1057 367.9688,72.2737 L368.3598,73.9537 C368.3878,74.0377 368.3878,74.0937 368.3878,74.1497 C368.3878,74.2617 368.3328,74.3177 368.1648,74.4017 L361.3878,76.9497 C361.2758,77.0057 361.2208,77.0057 361.1648,77.0057 C361.0528,77.0057 360.9968,76.9497 360.9398,76.8657 L360.4358,75.7457 C360.4088,75.6897 360.4088,75.6337 360.4088,75.6057 Z M364.5238,79.3577 C364.7488,79.3577 364.8048,79.4137 364.8048,79.5257 L364.8048,79.6097 L362.8998,95.0657 C362.8728,95.2897 362.8158,95.3457 362.5928,95.3457 L360.1838,95.3457 C359.9888,95.3457 359.9318,95.3177 359.9318,95.1497 L359.9318,95.0657 L361.8368,79.6377 C361.8648,79.4417 361.9208,79.3577 362.1438,79.3577 L364.5238,79.3577 Z" id="Fill-74" fill="#1A171B"></path>
                    <path d="M360.4088,75.6057 C360.4088,75.4937 360.4648,75.4657 360.6608,75.3537 L367.4358,72.0777 C367.5198,72.0497 367.6038,72.0217 367.6608,72.0217 C367.8008,72.0217 367.8848,72.1057 367.9688,72.2737 L368.3598,73.9537 C368.3878,74.0377 368.3878,74.0937 368.3878,74.1497 C368.3878,74.2617 368.3328,74.3177 368.1648,74.4017 L361.3878,76.9497 C361.2758,77.0057 361.2208,77.0057 361.1648,77.0057 C361.0528,77.0057 360.9968,76.9497 360.9398,76.8657 L360.4358,75.7457 C360.4088,75.6897 360.4088,75.6337 360.4088,75.6057 Z M364.5238,79.3577 C364.7488,79.3577 364.8048,79.4137 364.8048,79.5257 L364.8048,79.6097 L362.8998,95.0657 C362.8728,95.2897 362.8158,95.3457 362.5928,95.3457 L360.1838,95.3457 C359.9888,95.3457 359.9318,95.3177 359.9318,95.1497 L359.9318,95.0657 L361.8368,79.6377 C361.8648,79.4417 361.9208,79.3577 362.1438,79.3577 L364.5238,79.3577 Z" id="Stroke-76"></path>
                    <path d="M369.6764,80.2253 C369.7324,80.0013 369.8164,79.9173 370.0124,79.8893 C371.6924,79.5813 374.7154,79.2453 376.4514,79.2453 C380.9324,79.2453 383.1714,80.5893 383.1714,84.2013 C383.1714,84.5933 383.1444,84.9853 383.0874,85.4333 L381.8564,95.0653 C381.8274,95.2613 381.7724,95.3453 381.5754,95.3453 L379.1124,95.3453 C378.9994,95.3453 378.9154,95.2333 378.9154,95.0653 L380.1194,85.2933 C380.1484,85.0413 380.1484,84.8173 380.1484,84.5933 C380.1484,82.2413 378.6364,81.5693 376.0314,81.5693 C374.9114,81.5693 373.6524,81.6813 372.7284,81.7653 C372.5604,81.7653 372.4474,81.8213 372.4194,82.0453 L370.8234,95.0653 C370.7954,95.2613 370.7114,95.3453 370.5164,95.3453 L368.1084,95.3453 C367.9404,95.3453 367.8564,95.2613 367.8564,95.1213 L367.8564,95.0653 L369.6764,80.2253 Z" id="Fill-78" fill="#1A171B"></path>
                    <path d="M369.6764,80.2253 C369.7324,80.0013 369.8164,79.9173 370.0124,79.8893 C371.6924,79.5813 374.7154,79.2453 376.4514,79.2453 C380.9324,79.2453 383.1714,80.5893 383.1714,84.2013 C383.1714,84.5933 383.1444,84.9853 383.0874,85.4333 L381.8564,95.0653 C381.8274,95.2613 381.7724,95.3453 381.5754,95.3453 L379.1124,95.3453 C378.9994,95.3453 378.9154,95.2333 378.9154,95.0653 L380.1194,85.2933 C380.1484,85.0413 380.1484,84.8173 380.1484,84.5933 C380.1484,82.2413 378.6364,81.5693 376.0314,81.5693 C374.9114,81.5693 373.6524,81.6813 372.7284,81.7653 C372.5604,81.7653 372.4474,81.8213 372.4194,82.0453 L370.8234,95.0653 C370.7954,95.2613 370.7114,95.3453 370.5164,95.3453 L368.1084,95.3453 C367.9404,95.3453 367.8564,95.2613 367.8564,95.1213 L367.8564,95.0653 L369.6764,80.2253 Z" id="Stroke-80"></path>
                    <path d="M391.0953,79.3576 C391.3203,79.3576 391.3753,79.4136 391.3753,79.5536 L391.3753,79.6096 L389.4713,95.0656 C389.4443,95.2616 389.3873,95.3456 389.1633,95.3456 L386.7553,95.3456 C386.5603,95.3456 386.5033,95.2896 386.5033,95.1496 L386.5033,95.0656 L388.4073,79.6376 C388.4073,79.4696 388.5203,79.3576 388.7433,79.3576 L391.0953,79.3576 Z" id="Fill-82" fill="#1A171B"></path>
                    <path d="M391.0953,79.3576 C391.3203,79.3576 391.3753,79.4136 391.3753,79.5536 L391.3753,79.6096 L389.4713,95.0656 C389.4443,95.2616 389.3873,95.3456 389.1633,95.3456 L386.7553,95.3456 C386.5603,95.3456 386.5033,95.2896 386.5033,95.1496 L386.5033,95.0656 L388.4073,79.6376 C388.4073,79.4696 388.5203,79.3576 388.7433,79.3576 L391.0953,79.3576 Z" id="Stroke-84"></path>
                    <path d="M401.0924,95.5412 C397.4524,95.5412 393.9244,93.9452 393.9244,88.7092 C393.9244,88.2332 393.9524,87.7292 394.0084,87.1972 C394.8204,80.4212 399.6084,79.1892 403.5844,79.1892 C404.9844,79.1892 406.7484,79.3572 407.5884,79.4972 C407.7284,79.5532 407.8124,79.6092 407.8124,79.6932 C407.8124,79.7492 407.7834,79.7772 407.7834,79.8052 L407.3084,81.3732 C407.2244,81.5412 407.1684,81.6532 407.0284,81.6532 L406.9724,81.6532 C405.7684,81.5692 404.7884,81.5412 403.4444,81.5412 C400.3634,81.5412 397.6204,82.6892 397.0604,87.0852 C396.9764,87.6452 396.9474,88.1772 396.9474,88.6532 C396.9474,92.1812 399.0204,93.0212 402.0164,93.0212 C403.6404,93.0212 404.9844,92.9652 405.9914,92.9092 L406.0484,92.9092 C406.2164,92.9092 406.2724,92.9932 406.2724,93.1052 L406.2724,93.1612 L406.0484,94.9252 C406.0204,95.0652 405.9364,95.1492 405.7394,95.2052 C404.6764,95.3452 402.5484,95.5412 401.0924,95.5412" id="Fill-86" fill="#1A171B"></path>
                    <path d="M401.0924,95.5412 C397.4524,95.5412 393.9244,93.9452 393.9244,88.7092 C393.9244,88.2332 393.9524,87.7292 394.0084,87.1972 C394.8204,80.4212 399.6084,79.1892 403.5844,79.1892 C404.9844,79.1892 406.7484,79.3572 407.5884,79.4972 C407.7284,79.5532 407.8124,79.6092 407.8124,79.6932 C407.8124,79.7492 407.7834,79.7772 407.7834,79.8052 L407.3084,81.3732 C407.2244,81.5412 407.1684,81.6532 407.0284,81.6532 L406.9724,81.6532 C405.7684,81.5692 404.7884,81.5412 403.4444,81.5412 C400.3634,81.5412 397.6204,82.6892 397.0604,87.0852 C396.9764,87.6452 396.9474,88.1772 396.9474,88.6532 C396.9474,92.1812 399.0204,93.0212 402.0164,93.0212 C403.6404,93.0212 404.9844,92.9652 405.9914,92.9092 L406.0484,92.9092 C406.2164,92.9092 406.2724,92.9932 406.2724,93.1052 L406.2724,93.1612 L406.0484,94.9252 C406.0204,95.0652 405.9364,95.1492 405.7394,95.2052 C404.6764,95.3452 402.5484,95.5412 401.0924,95.5412 Z" id="Stroke-88"></path>
                    <path d="M422.4557,86.1057 C422.4557,82.5497 420.4957,81.3737 417.9477,81.3737 C415.1757,81.3737 412.7117,82.8857 412.1517,87.5057 C412.0957,87.9537 412.0677,88.3737 412.0677,88.7377 C412.0677,91.9017 413.8597,93.2457 416.5197,93.2457 C419.5437,93.2457 421.8677,91.4817 422.3717,87.5057 C422.4277,87.0017 422.4557,86.5537 422.4557,86.1057 M416.2117,95.6257 C412.4037,95.6257 409.1007,93.4137 409.1007,88.7937 C409.1007,88.4017 409.1277,87.9537 409.1847,87.5057 C409.8837,81.7937 413.6917,79.1617 418.2557,79.1617 C422.3997,79.1617 425.3677,81.2897 425.3677,85.9657 C425.3677,86.4417 425.3397,86.9737 425.2837,87.5057 C424.6117,92.9377 420.5237,95.6257 416.2117,95.6257" id="Fill-90" fill="#1A171B"></path>
                    <path d="M422.4557,86.1057 C422.4557,82.5497 420.4957,81.3737 417.9477,81.3737 C415.1757,81.3737 412.7117,82.8857 412.1517,87.5057 C412.0957,87.9537 412.0677,88.3737 412.0677,88.7377 C412.0677,91.9017 413.8597,93.2457 416.5197,93.2457 C419.5437,93.2457 421.8677,91.4817 422.3717,87.5057 C422.4277,87.0017 422.4557,86.5537 422.4557,86.1057 Z M416.2117,95.6257 C412.4037,95.6257 409.1007,93.4137 409.1007,88.7937 C409.1007,88.4017 409.1277,87.9537 409.1847,87.5057 C409.8837,81.7937 413.6917,79.1617 418.2557,79.1617 C422.3997,79.1617 425.3677,81.2897 425.3677,85.9657 C425.3677,86.4417 425.3397,86.9737 425.2837,87.5057 C424.6117,92.9377 420.5237,95.6257 416.2117,95.6257 Z" id="Stroke-92"></path>
                </g>
            </g>
        </g>
    </g>
</svg>