<?xml version="1.0" encoding="utf-8"?>
<!-- Generator: Adobe Illustrator 22.0.1, SVG Export Plug-In . SVG Version: 6.00 Build 0)  -->
<svg version="1.1" id="Layer_1" xmlns="http://www.w3.org/2000/svg" xmlns:xlink="http://www.w3.org/1999/xlink" x="0px" y="0px"
	 viewBox="0 0 512 512" style="enable-background:new 0 0 512 512;" xml:space="preserve">
<style type="text/css">
	.st0{fill:#00A200;}
</style>
<path class="st0" d="M209.9,154.1c-4.3-11.3-9.2-10.5-12.4-10.6c-3.3-0.1-6.1-0.1-10.6,0c-3.7,0.1-9.9,1-15.2,6.4
	c-5.4,5.4-20.4,18.3-21.4,45.7s18.1,54.6,20.7,58.5c2.7,3.8,36.5,63.2,92.7,87.7c56.2,24.4,56.5,17,66.8,16.4
	c10.3-0.5,33.7-12.2,38.9-25.1c5.2-12.8,5.6-24,4.3-26.4c-1.3-2.4-5-3.9-10.5-6.9s-32.6-17.5-37.7-19.5s-8.8-3.1-12.7,2.3
	c-4,5.4-15.2,17.6-18.6,21.2s-6.7,3.9-12.2,0.9s-23.4-9.5-44.1-29.3c-16.1-15.4-26.7-34-29.8-39.7s0-8.6,2.9-11.3
	c2.6-2.4,5.9-6.3,8.8-9.4c2.9-3.1,3.9-5.4,6-9.1c2-3.6,1.2-6.9-0.1-9.8C224.3,193.3,214.1,165.4,209.9,154.1L209.9,154.1z"/>
<path class="st0" d="M260.1,64c50.2,0,97.5,19.4,133,54.6c35.4,35.2,55,81.9,55,131.6s-19.5,96.4-55,131.6s-82.7,54.6-133,54.6
	c-31.8,0-63.2-8-90.9-23.2l-12-6.6l-13.1,4.1l-61.5,19.5l19.4-57.1l4.8-14.2L99,346.3c-17.6-28.9-26.9-62.1-26.9-96
	c0-49.7,19.5-96.4,55-131.6C162.6,83.4,209.8,64,260.1,64 M260.1,32c-121.5,0-220,97.7-220,218.2c0,41.2,11.5,79.8,31.6,112.7
	L32,480l121.8-38.7c31.5,17.3,67.7,27.1,106.3,27.1c121.5,0,219.9-97.7,219.9-218.2S381.5,32,260.1,32z"/>
</svg>
